<svg width="22" height="14" viewbox="0 0 22 14" fill="currentColor" xmlns="http://www.w3.org/2000/svg">
<path d="M16.5202 6.98835C16.9164 7.18908 17.3001 7.42117 17.6685 7.68017C18.3333 8.14796 18.9358 8.68829 19.4816 9.2946C20.2093 10.103 20.8063 11.0021 21.2756 11.9895C21.5724 12.6139 21.8073 13.2619 21.9932 13.9289C22.0076 13.9801 22.0027 13.9995 21.9427 13.9995C20.687 13.9979 19.4311 13.9977 18.1754 14C18.1087 14.0002 18.0971 13.9647 18.0813 13.9153C17.806 13.0552 17.4114 12.2575 16.8713 11.5381C16.0516 10.4463 15.0197 9.65405 13.7238 9.23846C13.3604 9.12193 12.9883 9.0479 12.6107 9.0003C12.5659 8.99472 12.5524 9.009 12.5563 9.05168C12.5582 9.07334 12.5566 9.09534 12.5566 9.11733C12.5566 10.7093 12.5566 12.3014 12.5566 13.8933C12.5566 13.9982 12.5566 13.9979 12.4523 13.9982C11.9506 14.0005 11.449 13.9918 10.9487 13.9513C9.05156 13.7971 7.26242 13.287 5.6338 12.2575C4.86675 11.7727 4.17569 11.192 3.55934 10.5192C2.36207 9.2127 1.53625 7.68444 0.967883 6.00338C0.66148 5.09703 0.440413 4.16868 0.287132 3.22294C0.18328 2.58134 0.109054 1.93679 0.0615562 1.28845C0.0325743 0.893055 0.0196935 0.496999 0.000533267 0.101108C-0.00316997 0.0249492 0.0108379 -0.000163336 0.0927921 7.98476e-07C1.28958 0.00311935 2.48637 0.00262695 3.683 0.00082147C3.74547 0.000657336 3.7685 0.010013 3.76978 0.0828886C3.77977 0.65145 3.81632 1.21837 3.87782 1.78381C3.9886 2.80309 4.18519 3.80316 4.50689 4.77598C4.78672 5.62226 5.15528 6.42471 5.65183 7.16282C6.22986 8.02206 6.93702 8.74229 7.83787 9.25045C8.16166 9.43313 8.50155 9.57724 8.85948 9.67654C8.93048 9.69623 8.9461 9.68245 8.94578 9.61023C8.94369 9.02213 8.94465 8.43404 8.94465 7.84595C8.94465 5.2692 8.94465 2.69246 8.94481 0.115715C8.94481 -0.0183822 8.93209 0.00279108 9.05543 0.00262695C10.1905 0.00197041 11.3255 0.00311935 12.4606 0.000493201C12.5368 0.000329067 12.5584 0.0170708 12.5582 0.097989C12.5556 1.87868 12.5563 3.65954 12.5563 5.44023C12.5563 5.5438 12.556 5.54085 12.659 5.52493C13.4314 5.40461 14.0979 5.04647 14.7069 4.56671C15.6428 3.82942 16.3529 2.89976 16.9106 1.84356C17.2106 1.27549 17.4487 0.681651 17.6186 0.0599098C17.6304 0.0169066 17.6479 0.000985604 17.6948 0.00114974C18.8405 0.00279108 19.9863 0.00246281 21.1322 0.00262695C21.1478 0.00262695 21.1636 0.00558136 21.1979 0.00902818C20.5978 3.00858 18.9807 5.28693 16.5202 6.98835Z" />
</svg>
