<svg width="14" height="22" viewbox="0 0 14 22" fill="currentColor" xmlns="http://www.w3.org/2000/svg">
<path d="M5.85234 15.4959C4.0449 15.318 2.41522 14.8979 1.01996 13.8682C0.846835 13.7401 0.668093 13.6166 0.510106 13.4735C-0.100596 12.9201 -0.16213 12.2862 0.321109 11.633C0.734511 11.074 1.42848 10.9245 2.1498 11.2455C2.28947 11.3077 2.42255 11.3853 2.55001 11.4687C5.15032 13.1546 8.72247 13.2012 11.3325 11.5445C11.5911 11.3574 11.8676 11.2049 12.1879 11.127C12.8108 10.9761 13.3917 11.192 13.726 11.7063C14.1079 12.2936 14.103 12.8669 13.6325 13.3228C12.9107 14.0219 12.0426 14.5277 11.0781 14.8807C10.1661 15.2143 9.16713 15.3823 8.17843 15.4938C8.32763 15.647 8.39795 15.7224 8.49123 15.8108C9.83375 17.0836 11.1821 18.3511 12.5203 19.6278C12.9761 20.0628 13.0714 20.6022 12.8204 21.1082C12.5459 21.6612 11.9315 22.025 11.3291 21.9861C10.9475 21.9612 10.6498 21.7819 10.3854 21.5306C9.37224 20.5686 8.34008 19.6244 7.34748 18.6442C7.05861 18.3592 6.91967 18.4131 6.66474 18.6606C5.64552 19.6506 4.6097 20.6255 3.56777 21.5948C3.09991 22.0301 2.54317 22.1084 2.0006 21.8598C1.42384 21.596 1.05683 21.0405 1.08516 20.4822C1.10469 20.1045 1.3015 19.8161 1.57621 19.5573C2.90481 18.3055 4.22975 17.0504 5.55517 15.7965C5.64284 15.7131 5.72464 15.6247 5.85234 15.4959Z" />
<path d="M6.95338 11.1356C3.72895 11.1252 1.08493 8.60289 1.10373 5.55547C1.12229 2.47441 3.76802 -0.00850334 7.0242 2.18882e-05C10.287 0.0083167 12.9058 2.52694 12.8895 5.64003C12.8729 8.68123 10.2105 11.1462 6.95338 11.1356ZM9.88383 5.56285C9.87821 4.04973 8.60113 2.84514 7.00076 2.84376C5.38695 2.84215 4.0984 4.06863 4.11085 5.59556C4.12281 7.10292 5.41088 8.29898 7.01565 8.29345C8.61554 8.28815 9.8892 7.07573 9.88383 5.56285Z" />
</svg>
