<svg width="24" height="24" viewbox="0 0 24 24" fill="currentColor" xmlns="http://www.w3.org/2000/svg">
<path d="M0 24L1.72642 17.5828C0.747663 15.8259 0.237893 13.8587 0.237893 11.8576C0.237893 5.31827 5.56669 0 12.1189 0C18.6712 0 24 5.31827 24 11.8576C24 18.3968 18.6712 23.7151 12.1189 23.7151C10.1546 23.7151 8.2107 23.2199 6.47069 22.277L0 24ZM6.78335 19.8689L7.19116 20.1131C8.68649 21.0017 10.3857 21.4697 12.1054 21.4697C17.4138 21.4697 21.7366 17.1555 21.7366 11.8576C21.7366 6.55964 17.4138 2.24533 12.1054 2.24533C6.79694 2.24533 2.47409 6.55964 2.47409 11.8576C2.47409 13.6077 2.96347 15.3307 3.88105 16.8434L4.13254 17.2504L3.16737 20.8321L6.78335 19.8689Z" />
<path fill-rule="evenodd" clip-rule="evenodd" d="M16.5301 13.5059C16.0408 13.2143 15.4018 12.8886 14.8309 13.1261C14.3891 13.3092 14.1036 13.9944 13.8182 14.3471C13.6686 14.5302 13.4987 14.5574 13.2676 14.4624C11.6092 13.8044 10.3381 12.6987 9.42054 11.1724C9.26421 10.935 9.2914 10.7518 9.48171 10.528C9.76039 10.2024 10.107 9.83608 10.1818 9.39515C10.2566 8.95422 10.0527 8.44546 9.86914 8.0588C9.63804 7.56361 9.37976 6.85133 8.87678 6.56643C8.41459 6.30865 7.80966 6.45111 7.40185 6.7835C6.69497 7.3601 6.35512 8.25551 6.36192 9.15094C6.36192 9.40192 6.3959 9.65971 6.45707 9.90391C6.59981 10.4941 6.87169 11.0435 7.17755 11.5659C7.40865 11.9593 7.66013 12.3392 7.93201 12.7123C8.82241 13.9129 9.92351 14.9576 11.2013 15.7445C11.8403 16.1379 12.5267 16.4771 13.2404 16.7145C14.0357 16.9791 14.7493 17.2504 15.6126 17.0876C16.5165 16.918 17.4069 16.3618 17.7672 15.4935C17.8759 15.2357 17.9235 14.9508 17.8691 14.6795C17.7468 14.1097 16.9855 13.7773 16.5301 13.5059Z" />
</svg>
