<svg width="24" height="20" viewbox="0 0 24 20" fill="currentColor" xmlns="http://www.w3.org/2000/svg">
<path d="M23.2784 0C23.1967 0 23.1034 0.0118694 23.0217 0.0474777L0.469749 8.77151C-0.171927 9.02077 -0.148593 9.93472 0.493082 10.1602L5.71982 11.9525L8.86986 18.3739L8.88153 18.3858C8.93986 18.5044 9.05653 18.5757 9.18486 18.5757C9.25487 18.5757 9.33653 18.5519 9.40654 18.4926L12.3582 15.9407L9.05653 13.4006L9.3132 16.7478L6.94484 11.7507L19.545 4.04748L9.05653 13.3887L17.2233 19.6914C17.4916 19.905 17.8066 20 18.1217 20C18.7633 20 19.3933 19.5727 19.5683 18.8487L23.9784 0.890208C24.0951 0.439169 23.7217 0 23.2784 0Z" />
</svg>
